<svg width="119" height="122" viewBox="0 0 119 122" fill="none" xmlns="http://www.w3.org/2000/svg">
<path fill-rule="evenodd" clip-rule="evenodd" d="M2.43488 60.4945C34.9406 86.3074 74.9307 74.8673 105.483 51.0046C106.008 50.5957 106.759 50.699 107.157 51.2383C107.554 51.7776 107.453 52.5488 106.927 52.9577C75.5212 77.4906 34.3874 88.9714 0.971373 62.4347C0.449968 62.0224 0.355093 61.252 0.759236 60.7139C1.16121 60.178 1.91138 60.0799 2.43488 60.4945Z" fill="#2059C5"/>
<path fill-rule="evenodd" clip-rule="evenodd" d="M105.635 52.4485C103.555 52.7418 100.949 53.1396 100.651 53.1759C92.6009 54.1591 84.8345 53.8071 76.8504 52.2772C76.2022 52.1539 75.7745 51.511 75.8952 50.8452C76.016 50.1794 76.6423 49.7395 77.2904 49.8629C85.0322 51.349 92.5642 51.6924 100.373 50.7377C100.828 50.6824 106.688 49.7845 107.885 49.6944C108.377 49.655 108.666 49.7895 108.732 49.8279C109.087 50.0182 109.239 50.2925 109.316 50.5261C109.401 50.7904 109.437 51.2619 109.155 51.8C108.857 52.3619 107.964 53.3665 107.759 53.6388C104.672 57.7555 100.877 62.0742 98.1634 66.7933C95.5748 71.2935 93.9668 76.1638 95.1081 81.6006C95.2476 82.2623 94.8349 82.9163 94.1905 83.0602C93.546 83.2041 92.9096 82.781 92.7701 82.1193C91.4954 76.0406 93.2122 70.5764 96.1046 65.5472C98.8032 60.8563 102.536 56.5475 105.635 52.4485Z" fill="#2059C5"/>
</svg>
