<svg width="597" height="597" viewBox="0 0 597 597" fill="none" xmlns="http://www.w3.org/2000/svg">
<g filter="url(#filter0_d_29_2)">
<path d="M517.801 436.156C542.748 396.547 557.304 349.734 557.588 299.487C558.328 168.462 461.84 59.5792 335.775 41.196C335.375 41.1402 334.988 41.0846 334.588 41.0289C333.413 40.862 332.226 40.695 331.051 40.5548C330.17 40.443 329.275 40.3445 328.381 40.2325C326.993 40.0644 325.605 39.923 324.216 39.7815C323.042 39.668 321.867 39.5546 320.692 39.4544C319.945 39.3834 319.197 39.3258 318.436 39.2681C316.673 39.1245 314.898 39.0077 313.122 38.9041C312.802 38.889 312.481 38.8738 312.174 38.8587C310.465 38.7689 308.742 38.6924 307.02 38.6292C306.485 38.6129 305.938 38.5964 305.403 38.5801C303.44 38.5289 301.478 38.4777 299.5 38.4665C299.5 38.4665 299.5 38.4665 299.487 38.4665C299.487 38.4665 299.474 38.4664 299.46 38.4663C297.444 38.4549 295.44 38.4703 293.436 38.5124C292.769 38.522 292.114 38.545 291.446 38.5546C290.097 38.5871 288.747 38.6328 287.398 38.692C286.623 38.7277 285.848 38.75 285.074 38.7991C283.804 38.8587 282.548 38.9317 281.292 39.0182C280.517 39.0672 279.742 39.1163 278.968 39.1653C277.19 39.2888 275.413 39.439 273.649 39.6027C272.473 39.7163 271.31 39.8433 270.134 39.9702C269.452 40.0465 268.771 40.1094 268.089 40.1857C266.752 40.3384 265.43 40.5046 264.093 40.6841C263.705 40.7353 263.331 40.7867 262.943 40.8379C236.049 44.4658 210.453 52.2018 186.815 63.4348C183.025 65.23 179.275 67.1321 175.59 69.1014C160.84 77.0054 146.923 86.3033 134.055 96.8088C132.444 98.1222 130.848 99.4488 129.277 100.803C122.969 106.203 116.912 111.912 111.148 117.89C106.822 122.367 102.656 127.018 98.6614 131.791C94.6677 136.577 90.8466 141.51 87.1979 146.579C84.7614 149.958 82.4181 153.404 80.1411 156.891C77.8641 160.391 75.6799 163.945 73.5758 167.552C70.4198 172.97 67.4499 178.511 64.6932 184.171C61.0042 191.711 57.6746 199.466 54.718 207.396C49.5506 221.284 45.5288 235.727 42.7733 250.631C41.9878 254.888 41.309 259.185 40.7371 263.509C39.3001 274.333 38.5299 285.362 38.4666 296.554C37.6567 439.908 153.214 556.778 296.567 557.588C298.812 557.601 301.042 557.586 303.273 557.545C307.721 557.464 312.157 557.262 316.553 556.953C320.949 556.644 325.319 556.228 329.649 555.705C333.98 555.182 338.285 554.551 342.55 553.814C346.815 553.077 351.04 552.232 355.239 551.295C379.673 545.796 402.804 536.845 424.109 524.984L554.656 556.055L517.814 436.183L517.801 436.156Z" fill="white"/>
</g>
<g filter="url(#filter1_d_29_2)">
<path d="M488.07 417.47C509.643 383.22 522.23 342.739 522.475 299.29C523.116 185.988 439.68 91.8355 330.669 75.9395C330.322 75.8915 329.988 75.8428 329.642 75.7949C328.626 75.6503 327.599 75.5062 326.584 75.385C325.822 75.2882 325.049 75.203 324.275 75.1063C323.075 74.9609 321.874 74.8386 320.674 74.7164C319.658 74.6182 318.642 74.5201 317.626 74.4335C316.98 74.3721 316.333 74.3222 315.675 74.2723C314.151 74.1482 312.616 74.0471 311.08 73.9576C310.803 73.9445 310.526 73.9313 310.261 73.9183C308.782 73.8406 307.293 73.7745 305.803 73.7199C305.341 73.7057 304.868 73.6915 304.406 73.6774C302.708 73.6331 301.011 73.5888 299.301 73.5792C299.301 73.5792 299.301 73.5792 299.29 73.5791C299.29 73.5791 299.278 73.5791 299.267 73.579C297.522 73.5691 295.79 73.5824 294.057 73.6189C293.48 73.6271 292.914 73.6471 292.336 73.6553C291.17 73.6834 290.003 73.723 288.836 73.7742C288.166 73.805 287.496 73.8244 286.826 73.8667C285.728 73.9183 284.642 73.9815 283.556 74.0562C282.886 74.0986 282.216 74.141 281.545 74.1834C280.009 74.2902 278.472 74.4202 276.947 74.5617C275.93 74.6599 274.924 74.7697 273.907 74.8794C273.318 74.9454 272.729 74.9999 272.139 75.0659C270.984 75.1979 269.839 75.3412 268.683 75.4965C268.348 75.5414 268.024 75.5856 267.689 75.6297C244.433 78.7667 222.3 85.4562 201.86 95.1698C198.582 96.7218 195.339 98.3669 192.153 100.07C179.398 106.905 167.363 114.944 156.236 124.03C154.844 125.165 153.462 126.312 152.105 127.483C146.65 132.153 141.413 137.09 136.429 142.259C132.688 146.13 129.085 150.152 125.631 154.279C122.177 158.418 118.873 162.684 115.719 167.067C113.612 169.988 111.585 172.968 109.616 175.983C107.646 179.01 105.758 182.083 103.939 185.203C101.21 189.888 98.6414 194.678 96.2579 199.574C93.0676 206.093 90.1884 212.799 87.632 219.656C83.1638 231.666 79.686 244.155 77.3034 257.043C76.6238 260.724 76.0368 264.439 75.5423 268.178C74.2999 277.538 73.6338 287.075 73.5791 296.754C72.8787 420.715 172.804 521.775 296.765 522.475C298.705 522.486 300.634 522.474 302.563 522.439C306.41 522.369 310.245 522.194 314.047 521.927C317.848 521.659 321.627 521.299 325.372 520.847C329.116 520.394 332.839 519.849 336.526 519.212C340.215 518.575 343.869 517.845 347.5 517.033C368.628 512.278 388.631 504.538 407.052 494.281L519.94 521.15L488.082 417.494L488.07 417.47Z" fill="white"/>
</g>
<g filter="url(#filter2_d_29_2)">
<path d="M458.853 399.107C477.109 370.123 487.761 335.866 487.969 299.096C488.51 203.215 417.902 123.537 325.651 110.084C325.358 110.043 325.075 110.003 324.782 109.962C323.922 109.84 323.053 109.718 322.194 109.615C321.549 109.533 320.894 109.461 320.24 109.379C319.224 109.256 318.208 109.153 317.192 109.049C316.332 108.966 315.473 108.883 314.613 108.81C314.066 108.758 313.519 108.715 312.962 108.674C311.672 108.569 310.373 108.483 309.073 108.407C308.839 108.396 308.604 108.385 308.379 108.374C307.129 108.308 305.868 108.252 304.608 108.206C304.217 108.194 303.816 108.182 303.425 108.17C301.989 108.133 300.552 108.095 299.106 108.087C299.106 108.087 299.106 108.087 299.096 108.087C299.096 108.087 299.086 108.087 299.076 108.087C297.601 108.078 296.135 108.09 294.668 108.12C294.179 108.127 293.7 108.144 293.212 108.151C292.224 108.175 291.237 108.208 290.249 108.252C289.682 108.278 289.115 108.294 288.548 108.33C287.62 108.374 286.7 108.427 285.782 108.49C285.214 108.527 284.647 108.562 284.08 108.598C282.78 108.689 281.479 108.799 280.188 108.918C279.327 109.001 278.476 109.094 277.616 109.187C277.117 109.243 276.618 109.289 276.119 109.345C275.141 109.457 274.173 109.578 273.195 109.71C272.911 109.747 272.637 109.785 272.354 109.823C252.673 112.477 233.943 118.138 216.645 126.358C213.871 127.672 211.127 129.063 208.43 130.505C197.636 136.289 187.452 143.093 178.036 150.78C176.857 151.741 175.689 152.712 174.54 153.703C169.923 157.655 165.492 161.833 161.274 166.207C158.108 169.483 155.059 172.887 152.136 176.38C149.214 179.882 146.417 183.492 143.748 187.202C141.964 189.674 140.249 192.196 138.583 194.747C136.916 197.308 135.319 199.909 133.779 202.549C131.469 206.514 129.296 210.568 127.279 214.711C124.579 220.228 122.142 225.902 119.979 231.706C116.198 241.869 113.254 252.438 111.238 263.344C110.663 266.459 110.166 269.603 109.748 272.768C108.697 280.689 108.133 288.76 108.087 296.95C107.494 401.853 192.057 487.376 296.959 487.969C298.601 487.978 300.233 487.968 301.866 487.938C305.121 487.878 308.367 487.73 311.584 487.504C314.801 487.278 317.999 486.974 321.168 486.591C324.337 486.208 327.487 485.747 330.608 485.208C333.729 484.667 336.821 484.05 339.894 483.363C357.774 479.34 374.701 472.789 390.291 464.11L485.823 486.847L458.863 399.127L458.853 399.107Z" fill="white"/>
</g>
<g filter="url(#filter3_d_29_2)">
<path d="M430.148 381.065C445.145 357.253 453.896 329.111 454.066 298.905C454.511 220.136 396.506 154.68 320.72 143.629C320.48 143.595 320.247 143.561 320.006 143.528C319.3 143.428 318.586 143.328 317.88 143.243C317.35 143.176 316.813 143.117 316.275 143.049C315.441 142.949 314.606 142.863 313.772 142.778C313.065 142.71 312.359 142.642 311.653 142.581C311.204 142.539 310.754 142.504 310.296 142.469C309.237 142.384 308.17 142.313 307.101 142.251C306.909 142.242 306.716 142.232 306.531 142.224C305.504 142.17 304.469 142.124 303.433 142.086C303.112 142.076 302.783 142.066 302.461 142.056C301.281 142.025 300.101 141.995 298.913 141.988C298.913 141.988 298.913 141.988 298.905 141.988C298.905 141.988 298.897 141.988 298.889 141.988C297.676 141.981 296.472 141.99 295.268 142.016C294.866 142.021 294.472 142.035 294.071 142.041C293.26 142.06 292.448 142.088 291.637 142.123C291.171 142.145 290.706 142.158 290.24 142.188C289.477 142.224 288.722 142.268 287.967 142.319C287.501 142.349 287.035 142.378 286.569 142.408C285.501 142.482 284.432 142.572 283.371 142.671C282.665 142.739 281.966 142.815 281.258 142.892C280.849 142.938 280.439 142.975 280.03 143.021C279.226 143.113 278.431 143.213 277.627 143.321C277.394 143.351 277.169 143.383 276.936 143.414C260.767 145.594 245.381 150.245 231.171 156.998C228.892 158.077 226.637 159.22 224.422 160.405C215.554 165.157 207.189 170.746 199.452 177.062C198.484 177.851 197.524 178.648 196.58 179.462C192.788 182.709 189.147 186.141 185.683 189.735C183.081 192.426 180.577 195.223 178.175 198.091C175.774 200.968 173.477 203.935 171.284 206.981C169.819 209.013 168.41 211.084 167.041 213.18C165.672 215.285 164.36 217.421 163.095 219.59C161.197 222.848 159.412 226.177 157.755 229.581C155.537 234.113 153.535 238.775 151.758 243.542C148.652 251.892 146.234 260.575 144.577 269.534C144.105 272.093 143.697 274.676 143.353 277.276C142.489 283.783 142.026 290.413 141.988 297.142C141.501 383.321 210.97 453.579 297.15 454.066C298.499 454.074 299.839 454.065 301.181 454.04C303.855 453.992 306.521 453.87 309.164 453.685C311.807 453.498 314.434 453.249 317.037 452.934C319.641 452.619 322.229 452.241 324.792 451.797C327.357 451.354 329.897 450.846 332.421 450.282C347.11 446.977 361.015 441.596 373.823 434.466L452.304 453.144L430.155 381.081L430.148 381.065Z" fill="white"/>
</g>
<g filter="url(#filter4_d_29_2)">
<path d="M402.468 363.669C414.324 344.846 421.241 322.6 421.376 298.721C421.727 236.455 375.874 184.713 315.966 175.977C315.776 175.95 315.592 175.924 315.402 175.897C314.843 175.818 314.28 175.738 313.721 175.672C313.303 175.618 312.877 175.572 312.452 175.518C311.792 175.439 311.133 175.371 310.473 175.304C309.915 175.25 309.357 175.196 308.798 175.149C308.443 175.115 308.088 175.088 307.726 175.06C306.888 174.992 306.045 174.937 305.201 174.888C305.048 174.88 304.896 174.873 304.75 174.866C303.938 174.823 303.119 174.787 302.301 174.757C302.047 174.749 301.786 174.741 301.533 174.733C300.6 174.709 299.667 174.685 298.728 174.679C298.728 174.679 298.728 174.679 298.721 174.679C298.721 174.679 298.715 174.679 298.709 174.679C297.75 174.674 296.798 174.682 295.846 174.701C295.528 174.706 295.218 174.717 294.9 174.721C294.259 174.737 293.617 174.758 292.976 174.787C292.608 174.803 292.24 174.814 291.871 174.838C291.268 174.866 290.672 174.901 290.075 174.942C289.706 174.965 289.338 174.989 288.97 175.011C288.125 175.07 287.281 175.141 286.443 175.219C285.884 175.273 285.331 175.334 284.772 175.394C284.448 175.43 284.124 175.46 283.8 175.496C283.165 175.569 282.536 175.648 281.901 175.733C281.717 175.758 281.539 175.782 281.355 175.806C268.575 177.53 256.411 181.206 245.177 186.545C243.377 187.398 241.594 188.302 239.843 189.237C232.833 192.994 226.22 197.412 220.105 202.405C219.339 203.029 218.581 203.66 217.834 204.303C214.837 206.869 211.959 209.582 209.219 212.423C207.164 214.55 205.183 216.761 203.285 219.029C201.387 221.304 199.572 223.648 197.837 226.057C196.68 227.662 195.566 229.3 194.484 230.957C193.401 232.62 192.364 234.309 191.364 236.024C189.864 238.598 188.453 241.23 187.143 243.921C185.39 247.504 183.807 251.189 182.402 254.958C179.947 261.558 178.036 268.421 176.726 275.504C176.353 277.526 176.03 279.569 175.758 281.624C175.075 286.768 174.71 292.009 174.68 297.327C174.295 365.452 229.209 420.991 297.334 421.375C298.4 421.381 299.461 421.375 300.52 421.356C302.634 421.317 304.742 421.221 306.831 421.074C308.92 420.927 310.997 420.729 313.055 420.481C315.113 420.232 317.159 419.932 319.186 419.583C321.212 419.232 323.221 418.831 325.216 418.385C336.828 415.772 347.82 411.518 357.944 405.882L419.982 420.646L402.474 363.681L402.468 363.669Z" fill="white"/>
</g>
<g filter="url(#filter5_d_29_2)">
<path d="M377.864 348.205C386.926 333.816 392.214 316.811 392.317 298.558C392.586 250.961 357.534 211.407 311.74 204.729C311.595 204.71 311.453 204.689 311.308 204.669C310.881 204.609 310.45 204.548 310.024 204.497C309.704 204.456 309.378 204.42 309.053 204.38C308.549 204.319 308.045 204.267 307.54 204.216C307.114 204.175 306.687 204.133 306.261 204.097C305.989 204.071 305.717 204.05 305.441 204.029C304.801 203.977 304.155 203.935 303.511 203.897C303.394 203.892 303.277 203.886 303.166 203.881C302.545 203.848 301.919 203.82 301.293 203.797C301.1 203.791 300.901 203.785 300.707 203.779C299.993 203.761 299.28 203.742 298.563 203.738C298.563 203.738 298.563 203.738 298.558 203.738C298.558 203.738 298.553 203.738 298.548 203.738C297.815 203.734 297.087 203.74 296.359 203.754C296.117 203.758 295.879 203.766 295.636 203.77C295.146 203.782 294.656 203.798 294.166 203.82C293.885 203.833 293.603 203.841 293.321 203.859C292.86 203.881 292.404 203.907 291.948 203.938C291.666 203.956 291.384 203.974 291.103 203.992C290.458 204.036 289.812 204.091 289.171 204.151C288.744 204.192 288.322 204.238 287.894 204.284C287.647 204.312 287.399 204.335 287.152 204.363C286.666 204.418 286.185 204.478 285.699 204.543C285.559 204.562 285.423 204.581 285.282 204.599C275.513 205.918 266.215 208.728 257.628 212.809C256.251 213.46 254.889 214.151 253.55 214.867C248.192 217.738 243.136 221.116 238.462 224.932C237.877 225.409 237.297 225.891 236.726 226.383C234.435 228.344 232.235 230.418 230.14 232.59C228.569 234.217 227.055 235.906 225.605 237.64C224.154 239.378 222.766 241.171 221.44 243.011C220.555 244.239 219.703 245.491 218.877 246.757C218.05 248.028 217.256 249.32 216.491 250.63C215.345 252.599 214.267 254.611 213.265 256.667C211.925 259.407 210.715 262.223 209.641 265.104C207.764 270.15 206.303 275.396 205.302 280.81C205.017 282.356 204.771 283.917 204.562 285.488C204.04 289.42 203.761 293.427 203.738 297.492C203.444 349.568 245.421 392.023 297.497 392.317C298.312 392.322 299.123 392.317 299.933 392.301C301.549 392.272 303.16 392.199 304.757 392.086C306.354 391.974 307.941 391.823 309.514 391.633C311.088 391.443 312.651 391.213 314.2 390.946C315.75 390.678 317.285 390.371 318.81 390.031C327.686 388.033 336.089 384.781 343.828 380.473L391.251 391.76L377.868 348.215L377.864 348.205Z" fill="white"/>
</g>
<defs>
<filter id="filter0_d_29_2" x="0.0399742" y="0.0404625" width="595.975" height="595.974" filterUnits="userSpaceOnUse" color-interpolation-filters="sRGB">
<feFlood flood-opacity="0" result="BackgroundImageFix"/>
<feColorMatrix in="SourceAlpha" type="matrix" values="0 0 0 0 0 0 0 0 0 0 0 0 0 0 0 0 0 0 127 0" result="hardAlpha"/>
<feOffset/>
<feGaussianBlur stdDeviation="19.2112"/>
<feComposite in2="hardAlpha" operator="out"/>
<feColorMatrix type="matrix" values="0 0 0 0 0.886275 0 0 0 0 0.921569 0 0 0 0 1 0 0 0 1 0"/>
<feBlend mode="normal" in2="BackgroundImageFix" result="effect1_dropShadow_29_2"/>
<feBlend mode="normal" in="SourceGraphic" in2="effect1_dropShadow_29_2" result="shape"/>
</filter>
<filter id="filter1_d_29_2" x="35.1528" y="35.1533" width="525.749" height="525.748" filterUnits="userSpaceOnUse" color-interpolation-filters="sRGB">
<feFlood flood-opacity="0" result="BackgroundImageFix"/>
<feColorMatrix in="SourceAlpha" type="matrix" values="0 0 0 0 0 0 0 0 0 0 0 0 0 0 0 0 0 0 127 0" result="hardAlpha"/>
<feOffset/>
<feGaussianBlur stdDeviation="19.2112"/>
<feComposite in2="hardAlpha" operator="out"/>
<feColorMatrix type="matrix" values="0 0 0 0 0.886275 0 0 0 0 0.921569 0 0 0 0 1 0 0 0 1 0"/>
<feBlend mode="normal" in2="BackgroundImageFix" result="effect1_dropShadow_29_2"/>
<feBlend mode="normal" in="SourceGraphic" in2="effect1_dropShadow_29_2" result="shape"/>
</filter>
<filter id="filter2_d_29_2" x="69.6611" y="69.6616" width="456.733" height="456.733" filterUnits="userSpaceOnUse" color-interpolation-filters="sRGB">
<feFlood flood-opacity="0" result="BackgroundImageFix"/>
<feColorMatrix in="SourceAlpha" type="matrix" values="0 0 0 0 0 0 0 0 0 0 0 0 0 0 0 0 0 0 127 0" result="hardAlpha"/>
<feOffset/>
<feGaussianBlur stdDeviation="19.2112"/>
<feComposite in2="hardAlpha" operator="out"/>
<feColorMatrix type="matrix" values="0 0 0 0 0.886275 0 0 0 0 0.921569 0 0 0 0 1 0 0 0 1 0"/>
<feBlend mode="normal" in2="BackgroundImageFix" result="effect1_dropShadow_29_2"/>
<feBlend mode="normal" in="SourceGraphic" in2="effect1_dropShadow_29_2" result="shape"/>
</filter>
<filter id="filter3_d_29_2" x="103.563" y="103.563" width="388.928" height="388.928" filterUnits="userSpaceOnUse" color-interpolation-filters="sRGB">
<feFlood flood-opacity="0" result="BackgroundImageFix"/>
<feColorMatrix in="SourceAlpha" type="matrix" values="0 0 0 0 0 0 0 0 0 0 0 0 0 0 0 0 0 0 127 0" result="hardAlpha"/>
<feOffset/>
<feGaussianBlur stdDeviation="19.2112"/>
<feComposite in2="hardAlpha" operator="out"/>
<feColorMatrix type="matrix" values="0 0 0 0 0.886275 0 0 0 0 0.921569 0 0 0 0 1 0 0 0 1 0"/>
<feBlend mode="normal" in2="BackgroundImageFix" result="effect1_dropShadow_29_2"/>
<feBlend mode="normal" in="SourceGraphic" in2="effect1_dropShadow_29_2" result="shape"/>
</filter>
<filter id="filter4_d_29_2" x="136.255" y="136.255" width="323.545" height="323.545" filterUnits="userSpaceOnUse" color-interpolation-filters="sRGB">
<feFlood flood-opacity="0" result="BackgroundImageFix"/>
<feColorMatrix in="SourceAlpha" type="matrix" values="0 0 0 0 0 0 0 0 0 0 0 0 0 0 0 0 0 0 127 0" result="hardAlpha"/>
<feOffset/>
<feGaussianBlur stdDeviation="19.2112"/>
<feComposite in2="hardAlpha" operator="out"/>
<feColorMatrix type="matrix" values="0 0 0 0 0.886275 0 0 0 0 0.921569 0 0 0 0 1 0 0 0 1 0"/>
<feBlend mode="normal" in2="BackgroundImageFix" result="effect1_dropShadow_29_2"/>
<feBlend mode="normal" in="SourceGraphic" in2="effect1_dropShadow_29_2" result="shape"/>
</filter>
<filter id="filter5_d_29_2" x="165.314" y="165.314" width="265.427" height="265.427" filterUnits="userSpaceOnUse" color-interpolation-filters="sRGB">
<feFlood flood-opacity="0" result="BackgroundImageFix"/>
<feColorMatrix in="SourceAlpha" type="matrix" values="0 0 0 0 0 0 0 0 0 0 0 0 0 0 0 0 0 0 127 0" result="hardAlpha"/>
<feOffset/>
<feGaussianBlur stdDeviation="19.2112"/>
<feComposite in2="hardAlpha" operator="out"/>
<feColorMatrix type="matrix" values="0 0 0 0 0.886275 0 0 0 0 0.921569 0 0 0 0 1 0 0 0 1 0"/>
<feBlend mode="normal" in2="BackgroundImageFix" result="effect1_dropShadow_29_2"/>
<feBlend mode="normal" in="SourceGraphic" in2="effect1_dropShadow_29_2" result="shape"/>
</filter>
</defs>
</svg>
